<?xml version="1.0" encoding="UTF-8" ?>
<svg version="1.1" width="12" height="8" xmlns="http://www.w3.org/2000/svg" shape-rendering="crispEdges">
<rect x="6" y="0" width="1" height="1" fill="#2C342A" />
<rect x="7" y="0" width="1" height="1" fill="#2C342A" />
<rect x="8" y="0" width="1" height="1" fill="#2C342A" />
<rect x="9" y="0" width="1" height="1" fill="#2C342A" />
<rect x="10" y="0" width="1" height="1" fill="#2C342A" />
<rect x="3" y="1" width="1" height="1" fill="#2C342A" />
<rect x="4" y="1" width="1" height="1" fill="#2C342A" />
<rect x="5" y="1" width="1" height="1" fill="#2C342A" />
<rect x="6" y="1" width="1" height="1" fill="#435A6B" />
<rect x="7" y="1" width="1" height="1" fill="#4F6D8D" />
<rect x="8" y="1" width="1" height="1" fill="#4F6D8D" />
<rect x="9" y="1" width="1" height="1" fill="#4F6D8D" />
<rect x="10" y="1" width="1" height="1" fill="#435A6B" />
<rect x="11" y="1" width="1" height="1" fill="#2C342A" />
<rect x="2" y="2" width="1" height="1" fill="#2C342A" />
<rect x="3" y="2" width="1" height="1" fill="#4F6D8D" />
<rect x="4" y="2" width="1" height="1" fill="#4F6D8D" />
<rect x="5" y="2" width="1" height="1" fill="#4F6D8D" />
<rect x="6" y="2" width="1" height="1" fill="#2C342A" />
<rect x="7" y="2" width="1" height="1" fill="#4F6D8D" />
<rect x="8" y="2" width="1" height="1" fill="#4F6D8D" />
<rect x="9" y="2" width="1" height="1" fill="#4F6D8D" />
<rect x="10" y="2" width="1" height="1" fill="#4F6D8D" />
<rect x="11" y="2" width="1" height="1" fill="#2C342A" />
<rect x="2" y="3" width="1" height="1" fill="#2C342A" />
<rect x="3" y="3" width="1" height="1" fill="#9ECEFF" />
<rect x="4" y="3" width="1" height="1" fill="#4F6D8D" />
<rect x="5" y="3" width="1" height="1" fill="#9ECEFF" />
<rect x="6" y="3" width="1" height="1" fill="#2C342A" />
<rect x="7" y="3" width="1" height="1" fill="#4F6D8D" />
<rect x="8" y="3" width="1" height="1" fill="#2C342A" />
<rect x="9" y="3" width="1" height="1" fill="#2C342A" />
<rect x="10" y="3" width="1" height="1" fill="#4F6D8D" />
<rect x="11" y="3" width="1" height="1" fill="#2C342A" />
<rect x="2" y="4" width="1" height="1" fill="#2C342A" />
<rect x="3" y="4" width="1" height="1" fill="#4F6D8D" />
<rect x="4" y="4" width="1" height="1" fill="#4F6D8D" />
<rect x="5" y="4" width="1" height="1" fill="#4F6D8D" />
<rect x="6" y="4" width="1" height="1" fill="#2C342A" />
<rect x="7" y="4" width="1" height="1" fill="#4F6D8D" />
<rect x="8" y="4" width="1" height="1" fill="#435A6B" />
<rect x="9" y="4" width="1" height="1" fill="#435A6B" />
<rect x="10" y="4" width="1" height="1" fill="#2C342A" />
<rect x="11" y="4" width="1" height="1" fill="#2C342A" />
<rect x="1" y="5" width="1" height="1" fill="#2C342A" />
<rect x="3" y="5" width="1" height="1" fill="#2C342A" />
<rect x="4" y="5" width="1" height="1" fill="#2C342A" />
<rect x="5" y="5" width="1" height="1" fill="#2C342A" />
<rect x="6" y="5" width="1" height="1" fill="#2C342A" />
<rect x="7" y="5" width="1" height="1" fill="#2C342A" />
<rect x="8" y="5" width="1" height="1" fill="#2C342A" />
<rect x="9" y="5" width="1" height="1" fill="#2C342A" />
<rect x="10" y="5" width="1" height="1" fill="#2C342A" />
<rect x="11" y="5" width="1" height="1" fill="#2C342A" />
<rect x="1" y="6" width="1" height="1" fill="#2C342A" />
<rect x="8" y="6" width="1" height="1" fill="#2C342A" />
<rect x="11" y="6" width="1" height="1" fill="#2C342A" />
<rect x="0" y="7" width="1" height="1" fill="#2C342A" />
<rect x="11" y="7" width="1" height="1" fill="#2C342A" />
</svg>